<?xml version="1.0" standalone="no"?>
<!DOCTYPE svg PUBLIC "-//W3C//DTD SVG 20010904//EN"
 "http://www.w3.org/TR/2001/REC-SVG-20010904/DTD/svg10.dtd">
<svg version="1.0" xmlns="http://www.w3.org/2000/svg"
 width="872.000000pt" height="872.000000pt" viewBox="0 0 872.000000 872.000000"
 preserveAspectRatio="xMidYMid meet">
<metadata>
Created by potrace 1.14, written by Peter Selinger 2001-2017
</metadata>
<g transform="translate(0.000000,872.000000) scale(0.100000,-0.100000)"
fill="#000000" stroke="none">
<path d="M80 8562 c-14 -1 -35 -5 -47 -7 l-23 -5 0 -4205 0 -4205 4355 0 4355
0 0 4209 c0 3358 -3 4210 -12 4214 -7 2 -21 1 -31 -2 -10 -4 -43 -4 -72 -1
-29 3 -62 3 -72 -1 -10 -3 -22 -4 -27 -1 -7 4 -293 6 -306 1 -3 0 -18 -1 -35
0 -151 5 -215 5 -215 -2 0 -5 -5 -5 -11 -2 -6 4 -44 6 -85 6 -94 -2 -85 -2
-179 -1 -44 1 -84 0 -90 -1 -5 -1 -14 0 -20 1 -22 5 -275 1 -284 -4 -5 -4 -12
-2 -15 2 -3 5 -25 6 -48 3 -24 -4 -56 -4 -73 -1 -16 4 -40 3 -51 -1 -12 -4
-25 -5 -28 -2 -9 9 -76 9 -76 0 0 -5 -5 -5 -10 -2 -6 4 -41 6 -78 6 -37 -1
-78 -1 -92 0 -14 0 -32 0 -40 0 -46 -2 -124 0 -131 4 -4 3 -10 1 -14 -5 -4 -6
-11 -7 -17 -4 -13 8 -274 8 -287 0 -5 -4 -12 -2 -15 2 -3 5 -25 6 -48 3 -24
-4 -56 -4 -73 -1 -16 4 -40 3 -51 -1 -12 -4 -25 -5 -28 -2 -9 9 -76 9 -76 0 0
-5 -5 -5 -10 -2 -6 4 -41 6 -78 6 -37 -1 -78 -1 -92 0 -14 0 -32 0 -40 0 -46
-2 -124 0 -131 4 -4 3 -10 1 -14 -5 -4 -6 -11 -7 -17 -4 -13 8 -274 8 -287 0
-5 -4 -12 -3 -14 2 -3 4 -38 5 -77 2 -39 -3 -74 -2 -76 2 -3 4 -15 3 -28 -2
-15 -5 -27 -5 -34 2 -6 6 -12 6 -16 -1 -4 -6 -15 -7 -30 -1 -12 4 -29 4 -36 0
-8 -5 -18 -6 -24 -3 -11 8 -105 7 -113 0 -3 -3 -15 -2 -28 3 -13 5 -26 6 -29
3 -3 -3 -36 -5 -73 -4 -38 1 -74 2 -80 2 -7 -1 -20 -1 -28 -1 -8 0 -22 0 -30
0 -8 0 -22 0 -30 0 -8 0 -22 0 -30 0 -8 0 -23 0 -32 0 -10 0 -40 0 -66 1 -27
1 -51 -1 -54 -4 -3 -3 -15 -2 -28 3 -13 5 -26 6 -29 3 -8 -8 -136 -9 -136 -1
0 4 -13 3 -29 -2 -17 -5 -33 -4 -39 2 -6 6 -12 6 -16 -1 -4 -6 -15 -7 -30 -1
-12 4 -29 4 -36 0 -8 -5 -18 -6 -24 -3 -11 8 -105 7 -113 0 -3 -3 -15 -2 -28
3 -13 5 -26 6 -29 3 -3 -3 -36 -5 -73 -4 -38 1 -74 2 -80 2 -7 -1 -20 -1 -28
-1 -8 0 -22 0 -30 0 -8 0 -22 0 -30 0 -8 0 -22 0 -30 0 -8 0 -23 0 -32 0 -10
0 -40 0 -66 1 -27 1 -51 -1 -53 -4 -3 -3 -18 -1 -34 3 -16 4 -31 6 -34 2 -4
-3 -32 -4 -64 -3 -126 6 -192 6 -192 -2 0 -5 -5 -5 -10 -2 -6 4 -41 6 -78 6
-37 -1 -78 -1 -92 0 -14 0 -32 0 -40 0 -46 -2 -124 0 -131 4 -4 3 -10 1 -14
-5 -4 -6 -11 -7 -17 -4 -13 8 -274 8 -287 0 -5 -4 -12 -2 -15 2 -3 5 -25 6
-48 3 -24 -4 -56 -4 -73 -1 -16 4 -40 3 -51 -1 -12 -4 -25 -5 -28 -2 -9 9 -76
9 -76 0 0 -5 -5 -5 -10 -2 -6 4 -41 6 -78 6 -37 -1 -78 -1 -92 0 -14 0 -32 0
-40 0 -46 -2 -124 0 -131 4 -4 3 -10 1 -14 -5 -4 -6 -11 -7 -17 -4 -13 8 -274
8 -287 0 -5 -4 -12 -2 -15 2 -3 5 -25 6 -48 3 -24 -4 -56 -4 -73 -1 -16 4 -40
3 -51 -1 -12 -4 -25 -5 -28 -2 -9 9 -76 9 -76 0 0 -5 -5 -5 -10 -2 -6 4 -41 6
-78 6 -37 -1 -78 -1 -92 0 -14 0 -32 0 -40 0 -46 -2 -124 0 -131 4 -4 3 -10 1
-14 -5 -4 -6 -11 -7 -17 -4 -13 8 -274 8 -287 0 -5 -4 -12 -2 -16 4 -4 6 -11
8 -16 4 -5 -3 -34 -5 -64 -4 -30 0 -62 1 -70 0 -8 0 -23 0 -32 0 -10 0 -67 0
-126 0 -60 0 -112 -2 -117 -5 -4 -3 -10 -2 -12 2 -1 5 -14 7 -28 5z"/>
</g>
</svg>
