<svg width="24" height="24" viewBox="0 0 24 24" fill="none" xmlns="http://www.w3.org/2000/svg">
<rect width="24" height="24" rx="3" fill="#006FFF"/>
<g clip-path="url(#clip0_4323_6)">
<path d="M14.25 7.41L13.5 10.5H17.8725C18.1054 10.5 18.335 10.5542 18.5433 10.6584C18.7516 10.7625 18.9328 10.9137 19.0725 11.1C19.2122 11.2863 19.3066 11.5026 19.3483 11.7317C19.39 11.9608 19.3777 12.1964 19.3125 12.42L17.565 18.42C17.4741 18.7316 17.2846 19.0053 17.025 19.2C16.7654 19.3947 16.4496 19.5 16.125 19.5H6C5.60218 19.5 5.22064 19.342 4.93934 19.0607C4.65804 18.7794 4.5 18.3978 4.5 18V12C4.5 11.6022 4.65804 11.2206 4.93934 10.9393C5.22064 10.658 5.60218 10.5 6 10.5H8.07C8.34906 10.4999 8.62255 10.4219 8.85972 10.2748C9.09688 10.1277 9.28832 9.91741 9.4125 9.6675L12 4.5C12.3537 4.50438 12.7018 4.58863 13.0184 4.74645C13.3349 4.90427 13.6117 5.13158 13.8281 5.4114C14.0444 5.69122 14.1947 6.01632 14.2678 6.3624C14.3409 6.70848 14.3348 7.0666 14.25 7.41Z" stroke="white" stroke-width="1.5" stroke-linecap="round" stroke-linejoin="round"/>
<path d="M8.25 10.5V19.5" stroke="white" stroke-width="1.5" stroke-linecap="round" stroke-linejoin="round"/>
</g>
<defs>
<clipPath id="clip0_4323_6">
<rect width="18" height="18" fill="white" transform="translate(3 3)"/>
</clipPath>
</defs>
</svg>
